<svg width="55.928mm" height="11.141mm" version="1.1" viewBox="0 0 55.928 11.141" xmlns="http://www.w3.org/2000/svg">
 <g transform="translate(-11.758 -116.87)">
  <text x="15.952057" y="124.63558" fill="#000000" font-family="Satisfy" font-size="9.7846px" letter-spacing="0px" stroke-width=".81539" word-spacing="0px" style="line-height:1.25" xml:space="preserve"><tspan x="15.952057" y="124.63558" stroke-width=".81539">itinerator</tspan></text>
  <path d="m13.037 125.14c12.316 2.1256 31.075 2.2097 42.045-0.26773" fill="none" stroke="#000" stroke-dasharray="0.54999999, 3.29999994" stroke-dashoffset="2.365" stroke-linecap="round" stroke-linejoin="round" stroke-width=".55"/>
  <g transform="translate(.88867 -.046778)">
   <g transform="matrix(3.0818 0 0 3.0818 -82.002 -254.68)" stroke="#000" stroke-width=".08">
    <path d="m43.552 121.9 4.2598-0.47813-2.5491 1.8325-0.82735-0.70914 3.3764-1.1234-3.7496 0.80402z" fill-opacity="0" style="paint-order:fill markers stroke"/>
    <path d="m44.062 122.23 0.13164 0.94544 0.20648-0.63194" fill="none" style="paint-order:fill markers stroke"/>
    <path d="m44.216 123.15 0.50408-0.33902" fill="none" style="paint-order:fill markers stroke"/>
   </g>
   <g fill-opacity="0" stroke="#dcddde" stroke-linecap="round" stroke-linejoin="round">
    <path d="m54.085 123.22c-0.08498-0.61067-0.15361-1.1113-0.15251-1.1125 0.0046-5e-3 9.0807-1.9486 9.0878-1.9462 0.0042 1e-3 -0.11299 0.0425-0.26049 0.0913s-2.0154 0.66972-4.151 1.3798c-2.1355 0.71009-3.8922 1.2938-3.9037 1.2971-0.01481 4e-3 -0.01924 0.0104-0.01518 0.021 0.0056 0.0146-0.43506 1.3798-0.44535 1.3798-0.0028-1e-5 -0.07456-0.49966-0.15954-1.1103z" stroke-dasharray="0.00340491, 0.0272393" stroke-width=".0034049" style="paint-order:fill markers stroke"/>
    <path d="m54.232 124.3c-0.0283-0.15913-0.30355-2.1904-0.29755-2.1959 0.0043-4e-3 0.43559-0.0988 0.95832-0.21074 1.2576-0.26925 8.0488-1.7254 8.0926-1.7352 0.02459-6e-3 0.03328-5e-3 0.03081 3e-3 -0.0019 6e-3 -1.874 0.63301-4.1603 1.3941s-4.156 1.388-4.155 1.3932c0.0034 0.017-0.44368 1.375-0.45381 1.3783-0.0055 2e-3 -0.01226-0.0101-0.01517-0.0264z" stroke-dasharray="0.00340491, 0.0272393" stroke-width=".0034049" style="paint-order:fill markers stroke"/>
    <path d="m56.353 124.04c-0.62431-0.53555-1.1351-0.98306-1.1351-0.99447 0-0.0195 9.3243-3.1322 9.3407-3.1182 0.0042 4e-3 0.0042 9e-3 0 0.0124-0.03444 0.0276-7.0625 5.0749-7.0659 5.0745-0.0024-2.7e-4 -0.5153-0.43866-1.1396-0.9742z" stroke-dasharray="0.00680982, 0.05447859" stroke-width=".0068098" style="paint-order:fill markers stroke"/>
   </g>
   <g stroke="#dcddde" stroke-dasharray="0.00481527, 0.03852218" stroke-linecap="round" stroke-linejoin="round" stroke-width=".0048153">
    <path d="m54.232 124.3c-8e-3 -0.0277-0.3005-2.1541-0.30029-2.185 1.11e-4 -0.0154 0.0049-0.0277 0.01079-0.0277 0.0059 0 0.70668-0.14947 1.5575-0.33182 0.85083-0.18244 2.8713-0.61555 4.49-0.96234 1.6187-0.34679 2.9531-0.63358 2.9653-0.63731 0.01233-3e-3 0.02219-8.7e-4 0.02219 6e-3 0 6e-3 -1.8633 0.6329-4.1406 1.3903-3.1607 1.0512-4.1406 1.3818-4.1406 1.397 0 0.0123-0.08281 0.27305-0.18404 0.58212-0.10121 0.30919-0.19982 0.61235-0.21908 0.67364-0.03316 0.1054-0.05011 0.1319-0.06121 0.0955z" fill="#ddd" style="paint-order:fill markers stroke"/>
    <path d="m54.578 124.14c0.07285-0.22248 0.17579-0.53823 0.22876-0.70166 0.07206-0.22234 0.10074-0.29546 0.11388-0.29042 0.02974 0.0114 0.70736 0.59754 0.70359 0.6086-0.0041 0.0119-1.1562 0.78799-1.1698 0.78799-0.0049 0 0.05072-0.18203 0.12357-0.40451z" fill="#dedede" style="paint-order:fill markers stroke"/>
    <path d="m57.338 124.89c-0.08281-0.0708-0.18209-0.1558-0.22063-0.18891-0.03854-0.0331-0.2994-0.25675-0.57969-0.49698s-0.52395-0.44908-0.54147-0.4641c-0.63456-0.54416-0.80257-0.68982-0.80223-0.69552 3.68e-4 -6e-3 2.6095-0.87635 7.44-2.4813 2.0521-0.68182 1.9238-0.63993 1.9238-0.62816 0 5e-3 -0.05303 0.048-0.11785 0.0946-0.06482 0.0466-0.23128 0.16631-0.36991 0.26595-0.13863 0.0996-0.31923 0.22959-0.40132 0.2888-0.08209 0.0592-0.25819 0.18578-0.39133 0.28128-0.13314 0.0955-0.3682 0.26442-0.52236 0.37536s-0.35769 0.25711-0.45228 0.32483c-0.0946 0.0677-0.31819 0.22843-0.49688 0.35713-0.17868 0.1287-0.43381 0.31219-0.56695 0.40774-0.13314 0.0956-0.3682 0.2645-0.52236 0.37543-0.15416 0.11093-0.33762 0.24273-0.40769 0.29288-0.07008 0.0502-0.29367 0.21093-0.49688 0.35727-0.20321 0.14634-0.4784 0.34416-0.61154 0.43961-0.13314 0.0954-0.3682 0.26434-0.52236 0.37531s-0.33762 0.24279-0.40769 0.29293c-0.07007 0.0501-0.27226 0.19542-0.44929 0.32285s-0.32428 0.23169-0.32721 0.23169c-0.0029 0-0.07307-0.0579-0.15588-0.12872z" fill="#f2f2f2" style="paint-order:fill markers stroke"/>
    <path d="m53.207 121.49c-0.32536-0.20834-0.59351-0.38492-0.5959-0.3924-0.0028-9e-3 0.08388-0.0234 0.2412-0.041 0.13505-0.0151 0.75866-0.085 1.3858-0.15542 6.8376-0.7678 8.415-0.94349 8.4327-0.9392 0.01768 4e-3 0.01788 6e-3 0.0015 0.0125-0.03077 0.0121-8.8271 1.8948-8.8515 1.8945-0.01221-1.3e-4 -0.2884-0.17069-0.61376-0.37903z" fill="#f2f2f2" style="paint-order:fill markers stroke"/>
   </g>
  </g>
 </g>
</svg>
